<?xml version="1.0" encoding="UTF-8" standalone="no"?>
<!-- Generator: Adobe Illustrator 19.0.0, SVG Export Plug-In . SVG Version: 6.00 Build 0)  -->

<svg
   xmlns:dc="http://purl.org/dc/elements/1.1/"
   xmlns:cc="http://creativecommons.org/ns#"
   xmlns:rdf="http://www.w3.org/1999/02/22-rdf-syntax-ns#"
   xmlns:svg="http://www.w3.org/2000/svg"
   xmlns="http://www.w3.org/2000/svg"
   xmlns:sodipodi="http://sodipodi.sourceforge.net/DTD/sodipodi-0.dtd"
   xmlns:inkscape="http://www.inkscape.org/namespaces/inkscape"
   version="1.1"
   id="Layer_1"
   x="0px"
   y="0px"
   viewBox="0 0 512 512"
   style="enable-background:new 0 0 512 512;"
   xml:space="preserve"
   sodipodi:docname="low-sales.svg"
   inkscape:version="0.92.0 r15299"><metadata
     id="metadata43"><rdf:RDF><cc:Work
         rdf:about=""><dc:format>image/svg+xml</dc:format><dc:type
           rdf:resource="http://purl.org/dc/dcmitype/StillImage" /></cc:Work></rdf:RDF></metadata><defs
     id="defs41" /><sodipodi:namedview
     pagecolor="#ffffff"
     bordercolor="#666666"
     borderopacity="1"
     objecttolerance="10"
     gridtolerance="10"
     guidetolerance="10"
     inkscape:pageopacity="0"
     inkscape:pageshadow="2"
     inkscape:window-width="716"
     inkscape:window-height="480"
     id="namedview39"
     showgrid="false"
     inkscape:zoom="0.4609375"
     inkscape:cx="256"
     inkscape:cy="256"
     inkscape:window-x="480"
     inkscape:window-y="168"
     inkscape:window-maximized="0"
     inkscape:current-layer="Layer_1" /><path
     style="fill:#008000"
     d="M132.792,493.448v-56.416c-36.632-1.168-73.273-11.632-94.208-25.6L54.287,356.8  c27.494,16.29,58.766,25.115,90.72,25.6c36.64,0,61.649-18.032,61.649-45.936c0-26.168-20.36-43.04-63.392-58.736  C82.2,255.592,42.648,227.672,42.648,173.601c0-50.008,34.896-88.392,93.601-98.864V17.744h47.688v54.08  c27.85,0.311,55.274,6.872,80.248,19.2l-15.664,53.488c-24.42-12.805-51.548-19.583-79.12-19.768  c-40.712,0-55.248,20.936-55.248,40.712c0,23.84,20.936,37.216,70.4,56.992c65.136,24.424,94.208,55.832,94.208,107.585  c0,49.432-34.312,93.048-98.28,103.512v59.896L132.792,493.448z"
     id="path2" /><rect
     x="389.923"
     style="fill:#999999"
     width="15.999"
     height="384.75299"
     id="rect4"
     y="-512"
     transform="scale(1,-1)" /><polygon
     points="397.92,512 473.416,381.256 322.432,381.256 "
     id="polygon6"
     transform="matrix(1,0,0,-1,0,512)" /><g
     id="g8" /><g
     id="g10" /><g
     id="g12" /><g
     id="g14" /><g
     id="g16" /><g
     id="g18" /><g
     id="g20" /><g
     id="g22" /><g
     id="g24" /><g
     id="g26" /><g
     id="g28" /><g
     id="g30" /><g
     id="g32" /><g
     id="g34" /><g
     id="g36" /></svg>